<svg width="1319" height="1324" viewBox="0 0 1319 1324" fill="none" xmlns="http://www.w3.org/2000/svg">
<path d="M611.851 457H702.712L856 875H752.778L721.873 774.359H586.509L554.368 875H453L611.851 457ZM699.003 699.032C694.882 687.096 690.556 674.747 686.023 661.987C681.902 648.815 677.782 636.055 673.661 623.706C669.952 611.357 666.45 599.832 663.153 589.13C659.857 578.016 656.972 568.755 654.5 561.346C652.028 569.166 649.143 578.634 645.847 589.747C642.55 600.45 638.842 611.975 634.721 624.323C631.012 636.672 626.892 649.226 622.359 661.987C618.238 674.747 614.118 687.096 609.997 699.032H699.003Z" fill="white"/>
<path d="M1052.2 713.346L992.052 667.434C1004.06 713.003 982.429 886.999 970.11 968.301C985.821 1005.99 1019.32 1041.66 1034.11 1054.79C1161.74 989.894 1246.27 824.258 1272.58 749.552L1157.28 763.831C1127.95 845.319 1051.09 926.482 1016.33 956.877L1052.2 713.346Z" fill="white"/>
<path d="M910.979 976.569L901.175 901.54C877.305 942.173 738.598 1049.43 672.229 1097.97C656.559 1135.68 654.852 1184.59 655.957 1204.33C791.94 1249.17 969.03 1192.43 1040.58 1158.46L949.202 1086.71C870.713 1123.31 758.965 1125.97 712.902 1122.72L910.979 976.569Z" fill="white"/>
<path d="M415.892 343.788L424.584 418.954C449.053 378.679 589.333 273.492 656.414 225.934C672.641 188.467 675.072 139.587 674.259 119.83C538.955 72.9849 361.044 127.092 289.001 160.001L379.305 233.097C458.327 197.657 570.102 196.658 616.112 200.588L415.892 343.788Z" fill="white"/>
<path d="M612.288 1065.56L661.135 1007.77C615.025 1017.5 442.322 987.237 361.734 970.887C323.313 984.703 286.014 1016.39 272.167 1030.51C330.631 1161.21 491.855 1253.87 565.159 1283.87L556.635 1168C476.708 1134.65 399.471 1053.85 370.843 1017.62L612.288 1065.56Z" fill="white"/>
<path d="M337.383 912.605L412.784 906.265C373.293 880.55 272.542 737.052 227.102 668.517C190.161 651.127 141.38 647.17 121.608 647.365C70.5579 781.139 119.079 960.654 149.721 1033.69L225.604 945.715C192.649 865.624 195.144 753.872 200.51 708.007L337.383 912.605Z" fill="white"/>
<path d="M259.403 613.101L317.292 661.829C307.467 615.739 337.375 442.973 353.557 362.351C339.661 323.959 307.898 286.726 293.753 272.909C163.171 331.644 70.8414 493.06 40.9995 566.427L156.848 557.662C190.032 477.666 270.674 400.261 306.847 371.557L259.403 613.101Z" fill="white"/>
<path d="M708.854 272.345L661.368 331.257C707.239 320.454 880.602 346.681 961.55 361.145C999.638 346.436 1036.19 313.888 1049.7 299.453C988.201 170.149 824.858 81.2732 750.874 52.9981L762.099 168.635C842.783 200.109 921.886 279.087 951.352 314.641L708.854 272.345Z" fill="white"/>
<path d="M970.554 419.54L895.576 429.732C936.332 453.391 1044.3 591.541 1093.19 657.658C1130.98 673.133 1179.89 674.586 1199.63 673.379C1243.76 537.166 1186.11 360.371 1151.77 289.001L1080.49 380.747C1117.5 459.045 1120.74 570.778 1117.73 616.858L970.554 419.54Z" fill="white"/>
</svg>
